<svg width="20" height="20" viewBox="0 0 20 20" fill="none" xmlns="http://www.w3.org/2000/svg">
<path fill-rule="evenodd" clip-rule="evenodd" d="M17.8649 15.2C17.7357 15.0799 17.6376 14.9553 17.6044 14.84C17.4739 14.383 17.6459 13.0548 17.9048 12.6401C18.1628 12.2238 17.877 10.975 17.7926 10.7683C17.7058 10.5604 17.6767 10.2906 17.3804 10.3724C17.0825 10.4558 16.4132 10.4247 15.8078 10.3001C15.2008 10.1768 14.6723 9.59213 14.5514 8.9328C14.4159 8.19365 14.4159 7.47566 14.5888 7.02547C14.782 6.5194 15.2577 6.32783 15.6931 6.08916C15.8938 5.9798 16.8644 5.82495 16.8278 5.35799C16.6022 4.92776 14.5418 5.41706 14.4591 4.74856C14.3756 4.07885 14.3461 3.7428 14.6075 3.20401C14.8817 2.64206 14.5663 2.7171 14.4907 2.03582C14.4803 1.93884 14.6951 1.6882 14.7122 1.59999C15.4231 2.00429 16.0908 2.48761 16.6899 3.06312C18.5667 4.86669 19.6 7.26453 19.6 9.81523C19.6 11.7669 18.9905 13.6255 17.8649 15.2M13.4437 14.8971C13.034 15.5476 13.1325 16.0268 12.1978 16.5241C11.6772 16.8014 11.3068 16.88 11.0314 17.6248C10.7548 18.368 10.2962 18.3418 9.15124 18.9456C8.0047 19.5509 7.54927 18.9456 7.45587 18.4813C7.36288 18.017 7.64544 16.9203 7.64544 16.9203C7.64544 16.9203 7.75751 16.5927 6.9452 16.2227C4.89097 15.2872 6.66343 12.0029 6.66343 12.0029C6.19925 11.4596 5.02052 10.394 3.37483 10.045C1.80147 9.71208 1.35279 8.78873 0.799988 7.86699C1.20456 6.16055 2.05462 4.59235 3.30966 3.31876C5.10477 1.49786 7.49085 0.399994 10.0315 0.399994C10.0315 0.399994 10.8883 0.399994 11.6971 0.612392C10.9575 1.42652 10.1301 2.24951 9.51527 2.47642C8.40847 2.88751 7.89541 3.56098 7.89064 4.27838C7.88826 4.64998 8.65765 5.32345 8.65765 6.17546C8.65765 7.62356 7.59497 7.65701 7.47098 7.04682C7.1912 5.6628 6.12096 6.02029 4.8393 6.15894C3.55565 6.29879 2.77792 7.81016 3.60215 8.41471C4.42798 9.01926 4.38546 8.22367 4.70299 7.99677C5.01893 7.76946 5.24228 7.67958 5.48232 7.99677C5.72037 8.31395 6.23661 8.48645 6.18693 9.13735C6.14361 9.78785 6.00452 10.3448 6.87684 10.3448C7.74797 10.3448 7.77818 10.5391 8.33098 10.8176C8.87822 11.0965 9.39645 11.0441 9.85307 11.1376C10.3117 11.2299 10.9126 12.1279 10.9126 12.1279C12.2125 12.5539 12.6401 12.728 12.999 13.0907C13.3567 13.4534 13.8582 14.2462 13.4437 14.8971" fill="white"/>
</svg>
