<svg width="7" height="11" viewBox="0 0 7 11" fill="none" xmlns="http://www.w3.org/2000/svg">
<path fill-rule="evenodd" clip-rule="evenodd" d="M3.57866 5.75002C2.65532 5.75002 1.90837 5.00221 1.90837 4.07965C1.90837 3.15757 2.65532 2.40911 3.57866 2.40911C4.50167 2.40911 5.24927 3.15757 5.24927 4.07965C5.24927 5.00221 4.50167 5.75002 3.57866 5.75002ZM3.48394 0.5C1.54227 0.5 0 2.13678 0 4.15569C0 6.90791 2.95078 9.75191 2.95078 9.75191C3.34777 10.1278 3.59437 10.1585 4.01646 9.75191C4.01646 9.75191 7 6.90791 7 4.15569C7 2.13678 5.42544 0.5 3.48394 0.5Z" fill="#F55A5A"/>
</svg>
